<mxfile host="app.diagrams.net" modified="2023-12-03T10:24:59.036Z" agent="Mozilla/5.0 (Windows NT 10.0; Win64; x64) AppleWebKit/537.36 (KHTML, like Gecko) Chrome/119.0.0.0 Safari/537.36" etag="TRGJ9fSdQQ3Jl6-aSp0T" version="22.1.5" type="gitlab">
  <diagram name="Page-1" id="03018318-947c-dd8e-b7a3-06fadd420f32">
    <mxGraphModel dx="1405" dy="708" grid="1" gridSize="10" guides="1" tooltips="1" connect="1" arrows="1" fold="1" page="1" pageScale="1" pageWidth="1100" pageHeight="850" background="none" math="0" shadow="0">
      <root>
        <mxCell id="0" />
        <mxCell id="1" parent="0" />
        <mxCell id="HnI-MgtMOkBRiW1qj2IK-1" value="" style="whiteSpace=wrap;html=1;rounded=0;shadow=0;labelBackgroundColor=none;strokeWidth=1;fillColor=#f5f5f5;fontFamily=Verdana;fontSize=12;align=center;comic=1;fontColor=#333333;strokeColor=#666666;" vertex="1" parent="1">
          <mxGeometry x="30" y="40" width="1040" height="50" as="geometry" />
        </mxCell>
        <mxCell id="HnI-MgtMOkBRiW1qj2IK-2" value="Home" style="text;html=1;points=[];align=left;verticalAlign=top;spacingTop=-4;fontSize=14;fontFamily=Verdana" vertex="1" parent="1">
          <mxGeometry x="800" y="55" width="60" height="20" as="geometry" />
        </mxCell>
        <mxCell id="HnI-MgtMOkBRiW1qj2IK-3" value="Login" style="text;html=1;points=[];align=left;verticalAlign=top;spacingTop=-4;fontSize=14;fontFamily=Verdana" vertex="1" parent="1">
          <mxGeometry x="890" y="55" width="60" height="20" as="geometry" />
        </mxCell>
        <mxCell id="HnI-MgtMOkBRiW1qj2IK-4" value="Register" style="text;html=1;points=[];align=left;verticalAlign=top;spacingTop=-4;fontSize=14;fontFamily=Verdana" vertex="1" parent="1">
          <mxGeometry x="980" y="55" width="60" height="20" as="geometry" />
        </mxCell>
        <mxCell id="HnI-MgtMOkBRiW1qj2IK-5" value="&lt;font style=&quot;font-size: 18px;&quot;&gt;Ford Car Prediction&lt;/font&gt;" style="text;html=1;points=[];align=left;verticalAlign=top;spacingTop=-4;fontSize=14;fontFamily=Verdana" vertex="1" parent="1">
          <mxGeometry x="50" y="55" width="60" height="20" as="geometry" />
        </mxCell>
        <mxCell id="HnI-MgtMOkBRiW1qj2IK-6" value="" style="rounded=1;whiteSpace=wrap;html=1;fillColor=#003366;" vertex="1" parent="1">
          <mxGeometry x="60" y="180" width="990" height="450" as="geometry" />
        </mxCell>
        <mxCell id="HnI-MgtMOkBRiW1qj2IK-7" style="edgeStyle=orthogonalEdgeStyle;rounded=0;orthogonalLoop=1;jettySize=auto;html=1;exitX=1;exitY=0.5;exitDx=0;exitDy=0;entryX=1;entryY=0.75;entryDx=0;entryDy=0;" edge="1" parent="1">
          <mxGeometry relative="1" as="geometry">
            <mxPoint x="760" y="370" as="sourcePoint" />
            <mxPoint x="760" y="380" as="targetPoint" />
          </mxGeometry>
        </mxCell>
        <mxCell id="HnI-MgtMOkBRiW1qj2IK-9" value="&lt;font color=&quot;#ffffff&quot; style=&quot;font-size: 24px;&quot;&gt;Prediction History&lt;/font&gt;" style="text;html=1;points=[];align=left;verticalAlign=top;spacingTop=-4;fontSize=14;fontFamily=Verdana" vertex="1" parent="1">
          <mxGeometry x="140" y="230" width="350" height="50" as="geometry" />
        </mxCell>
        <mxCell id="HnI-MgtMOkBRiW1qj2IK-10" value="Copyright ©2023. ⚉ Ford Car Prediction ⚉ All rights reserved." style="whiteSpace=wrap;html=1;rounded=0;shadow=0;labelBackgroundColor=none;strokeWidth=1;fillColor=#f5f5f5;fontFamily=Verdana;fontSize=12;align=center;comic=1;fontColor=#333333;strokeColor=#666666;" vertex="1" parent="1">
          <mxGeometry y="740" width="1100" height="110" as="geometry" />
        </mxCell>
        <mxCell id="HnI-MgtMOkBRiW1qj2IK-21" style="edgeStyle=orthogonalEdgeStyle;rounded=0;orthogonalLoop=1;jettySize=auto;html=1;exitX=1;exitY=0.5;exitDx=0;exitDy=0;entryX=1;entryY=0.75;entryDx=0;entryDy=0;" edge="1" parent="1">
          <mxGeometry relative="1" as="geometry">
            <mxPoint x="350" y="455" as="sourcePoint" />
            <mxPoint x="350" y="465" as="targetPoint" />
          </mxGeometry>
        </mxCell>
        <mxCell id="HnI-MgtMOkBRiW1qj2IK-24" style="edgeStyle=orthogonalEdgeStyle;rounded=0;orthogonalLoop=1;jettySize=auto;html=1;exitX=1;exitY=0.5;exitDx=0;exitDy=0;entryX=1;entryY=0.75;entryDx=0;entryDy=0;" edge="1" parent="1">
          <mxGeometry relative="1" as="geometry">
            <mxPoint x="760" y="455" as="sourcePoint" />
            <mxPoint x="760" y="465" as="targetPoint" />
          </mxGeometry>
        </mxCell>
        <mxCell id="HnI-MgtMOkBRiW1qj2IK-27" style="edgeStyle=orthogonalEdgeStyle;rounded=0;orthogonalLoop=1;jettySize=auto;html=1;exitX=1;exitY=0.5;exitDx=0;exitDy=0;entryX=1;entryY=0.75;entryDx=0;entryDy=0;" edge="1" parent="1">
          <mxGeometry relative="1" as="geometry">
            <mxPoint x="380" y="540" as="sourcePoint" />
            <mxPoint x="380" y="550" as="targetPoint" />
          </mxGeometry>
        </mxCell>
        <mxCell id="HnI-MgtMOkBRiW1qj2IK-162" value="Assets" style="childLayout=tableLayout;recursiveResize=0;strokeColor=#98bf21;fillColor=#A7C942;shadow=1;" vertex="1" parent="1">
          <mxGeometry x="100" y="300" width="280" height="200" as="geometry" />
        </mxCell>
        <mxCell id="HnI-MgtMOkBRiW1qj2IK-163" style="shape=tableRow;horizontal=0;startSize=0;swimlaneHead=0;swimlaneBody=0;top=0;left=0;bottom=0;right=0;dropTarget=0;collapsible=0;recursiveResize=0;expand=0;fontStyle=0;strokeColor=inherit;fillColor=#ffffff;" vertex="1" parent="HnI-MgtMOkBRiW1qj2IK-162">
          <mxGeometry width="280" height="41" as="geometry" />
        </mxCell>
        <mxCell id="HnI-MgtMOkBRiW1qj2IK-164" value="Model" style="connectable=0;recursiveResize=0;strokeColor=inherit;fillColor=#A7C942;align=center;fontStyle=1;fontColor=#FFFFFF;html=1;" vertex="1" parent="HnI-MgtMOkBRiW1qj2IK-163">
          <mxGeometry width="93" height="41" as="geometry">
            <mxRectangle width="93" height="41" as="alternateBounds" />
          </mxGeometry>
        </mxCell>
        <mxCell id="HnI-MgtMOkBRiW1qj2IK-165" value="Year" style="connectable=0;recursiveResize=0;strokeColor=inherit;fillColor=#A7C942;align=center;fontStyle=1;fontColor=#FFFFFF;html=1;" vertex="1" parent="HnI-MgtMOkBRiW1qj2IK-163">
          <mxGeometry x="93" width="94" height="41" as="geometry">
            <mxRectangle width="94" height="41" as="alternateBounds" />
          </mxGeometry>
        </mxCell>
        <mxCell id="HnI-MgtMOkBRiW1qj2IK-166" value="Transmission" style="connectable=0;recursiveResize=0;strokeColor=inherit;fillColor=#A7C942;align=center;fontStyle=1;fontColor=#FFFFFF;html=1;" vertex="1" parent="HnI-MgtMOkBRiW1qj2IK-163">
          <mxGeometry x="187" width="93" height="41" as="geometry">
            <mxRectangle width="93" height="41" as="alternateBounds" />
          </mxGeometry>
        </mxCell>
        <mxCell id="HnI-MgtMOkBRiW1qj2IK-167" value="" style="shape=tableRow;horizontal=0;startSize=0;swimlaneHead=0;swimlaneBody=0;top=0;left=0;bottom=0;right=0;dropTarget=0;collapsible=0;recursiveResize=0;expand=0;fontStyle=0;strokeColor=inherit;fillColor=#ffffff;" vertex="1" parent="HnI-MgtMOkBRiW1qj2IK-162">
          <mxGeometry y="41" width="280" height="40" as="geometry" />
        </mxCell>
        <mxCell id="HnI-MgtMOkBRiW1qj2IK-168" value="Fiesta" style="connectable=0;recursiveResize=0;strokeColor=inherit;fillColor=inherit;align=center;whiteSpace=wrap;html=1;" vertex="1" parent="HnI-MgtMOkBRiW1qj2IK-167">
          <mxGeometry width="93" height="40" as="geometry">
            <mxRectangle width="93" height="40" as="alternateBounds" />
          </mxGeometry>
        </mxCell>
        <mxCell id="HnI-MgtMOkBRiW1qj2IK-169" value="2016" style="connectable=0;recursiveResize=0;strokeColor=inherit;fillColor=inherit;align=center;whiteSpace=wrap;html=1;" vertex="1" parent="HnI-MgtMOkBRiW1qj2IK-167">
          <mxGeometry x="93" width="94" height="40" as="geometry">
            <mxRectangle width="94" height="40" as="alternateBounds" />
          </mxGeometry>
        </mxCell>
        <mxCell id="HnI-MgtMOkBRiW1qj2IK-170" value="Automatic" style="connectable=0;recursiveResize=0;strokeColor=inherit;fillColor=inherit;align=center;whiteSpace=wrap;html=1;" vertex="1" parent="HnI-MgtMOkBRiW1qj2IK-167">
          <mxGeometry x="187" width="93" height="40" as="geometry">
            <mxRectangle width="93" height="40" as="alternateBounds" />
          </mxGeometry>
        </mxCell>
        <mxCell id="HnI-MgtMOkBRiW1qj2IK-171" value="" style="shape=tableRow;horizontal=0;startSize=0;swimlaneHead=0;swimlaneBody=0;top=0;left=0;bottom=0;right=0;dropTarget=0;collapsible=0;recursiveResize=0;expand=0;fontStyle=1;strokeColor=inherit;fillColor=#EAF2D3;" vertex="1" parent="HnI-MgtMOkBRiW1qj2IK-162">
          <mxGeometry y="81" width="280" height="39" as="geometry" />
        </mxCell>
        <mxCell id="HnI-MgtMOkBRiW1qj2IK-172" value="Puma" style="connectable=0;recursiveResize=0;strokeColor=inherit;fillColor=inherit;whiteSpace=wrap;html=1;" vertex="1" parent="HnI-MgtMOkBRiW1qj2IK-171">
          <mxGeometry width="93" height="39" as="geometry">
            <mxRectangle width="93" height="39" as="alternateBounds" />
          </mxGeometry>
        </mxCell>
        <mxCell id="HnI-MgtMOkBRiW1qj2IK-173" value="2019" style="connectable=0;recursiveResize=0;strokeColor=inherit;fillColor=inherit;whiteSpace=wrap;html=1;" vertex="1" parent="HnI-MgtMOkBRiW1qj2IK-171">
          <mxGeometry x="93" width="94" height="39" as="geometry">
            <mxRectangle width="94" height="39" as="alternateBounds" />
          </mxGeometry>
        </mxCell>
        <mxCell id="HnI-MgtMOkBRiW1qj2IK-174" value="Automatic" style="connectable=0;recursiveResize=0;strokeColor=inherit;fillColor=inherit;whiteSpace=wrap;html=1;" vertex="1" parent="HnI-MgtMOkBRiW1qj2IK-171">
          <mxGeometry x="187" width="93" height="39" as="geometry">
            <mxRectangle width="93" height="39" as="alternateBounds" />
          </mxGeometry>
        </mxCell>
        <mxCell id="HnI-MgtMOkBRiW1qj2IK-175" value="" style="shape=tableRow;horizontal=0;startSize=0;swimlaneHead=0;swimlaneBody=0;top=0;left=0;bottom=0;right=0;dropTarget=0;collapsible=0;recursiveResize=0;expand=0;fontStyle=0;strokeColor=inherit;fillColor=#ffffff;" vertex="1" parent="HnI-MgtMOkBRiW1qj2IK-162">
          <mxGeometry y="120" width="280" height="41" as="geometry" />
        </mxCell>
        <mxCell id="HnI-MgtMOkBRiW1qj2IK-176" value="B-MAX" style="connectable=0;recursiveResize=0;strokeColor=inherit;fillColor=inherit;fontStyle=0;align=center;whiteSpace=wrap;html=1;" vertex="1" parent="HnI-MgtMOkBRiW1qj2IK-175">
          <mxGeometry width="93" height="41" as="geometry">
            <mxRectangle width="93" height="41" as="alternateBounds" />
          </mxGeometry>
        </mxCell>
        <mxCell id="HnI-MgtMOkBRiW1qj2IK-177" value="2013" style="connectable=0;recursiveResize=0;strokeColor=inherit;fillColor=inherit;fontStyle=0;align=center;whiteSpace=wrap;html=1;" vertex="1" parent="HnI-MgtMOkBRiW1qj2IK-175">
          <mxGeometry x="93" width="94" height="41" as="geometry">
            <mxRectangle width="94" height="41" as="alternateBounds" />
          </mxGeometry>
        </mxCell>
        <mxCell id="HnI-MgtMOkBRiW1qj2IK-178" value="Manual" style="connectable=0;recursiveResize=0;strokeColor=inherit;fillColor=inherit;fontStyle=0;align=center;whiteSpace=wrap;html=1;" vertex="1" parent="HnI-MgtMOkBRiW1qj2IK-175">
          <mxGeometry x="187" width="93" height="41" as="geometry">
            <mxRectangle width="93" height="41" as="alternateBounds" />
          </mxGeometry>
        </mxCell>
        <mxCell id="HnI-MgtMOkBRiW1qj2IK-179" value="" style="shape=tableRow;horizontal=0;startSize=0;swimlaneHead=0;swimlaneBody=0;top=0;left=0;bottom=0;right=0;dropTarget=0;collapsible=0;recursiveResize=0;expand=0;fontStyle=1;strokeColor=inherit;fillColor=#EAF2D3;" vertex="1" parent="HnI-MgtMOkBRiW1qj2IK-162">
          <mxGeometry y="161" width="280" height="39" as="geometry" />
        </mxCell>
        <mxCell id="HnI-MgtMOkBRiW1qj2IK-180" value="Kuga" style="connectable=0;recursiveResize=0;strokeColor=inherit;fillColor=inherit;whiteSpace=wrap;html=1;" vertex="1" parent="HnI-MgtMOkBRiW1qj2IK-179">
          <mxGeometry width="93" height="39" as="geometry">
            <mxRectangle width="93" height="39" as="alternateBounds" />
          </mxGeometry>
        </mxCell>
        <mxCell id="HnI-MgtMOkBRiW1qj2IK-181" value="2017" style="connectable=0;recursiveResize=0;strokeColor=inherit;fillColor=inherit;whiteSpace=wrap;html=1;" vertex="1" parent="HnI-MgtMOkBRiW1qj2IK-179">
          <mxGeometry x="93" width="94" height="39" as="geometry">
            <mxRectangle width="94" height="39" as="alternateBounds" />
          </mxGeometry>
        </mxCell>
        <mxCell id="HnI-MgtMOkBRiW1qj2IK-182" value="Semi-Auto" style="connectable=0;recursiveResize=0;strokeColor=inherit;fillColor=inherit;whiteSpace=wrap;html=1;" vertex="1" parent="HnI-MgtMOkBRiW1qj2IK-179">
          <mxGeometry x="187" width="93" height="39" as="geometry">
            <mxRectangle width="93" height="39" as="alternateBounds" />
          </mxGeometry>
        </mxCell>
        <mxCell id="HnI-MgtMOkBRiW1qj2IK-204" value="Assets" style="childLayout=tableLayout;recursiveResize=0;strokeColor=#98bf21;fillColor=#A7C942;shadow=1;" vertex="1" parent="1">
          <mxGeometry x="380" y="300" width="280" height="200" as="geometry" />
        </mxCell>
        <mxCell id="HnI-MgtMOkBRiW1qj2IK-205" style="shape=tableRow;horizontal=0;startSize=0;swimlaneHead=0;swimlaneBody=0;top=0;left=0;bottom=0;right=0;dropTarget=0;collapsible=0;recursiveResize=0;expand=0;fontStyle=0;strokeColor=inherit;fillColor=#ffffff;" vertex="1" parent="HnI-MgtMOkBRiW1qj2IK-204">
          <mxGeometry width="280" height="41" as="geometry" />
        </mxCell>
        <mxCell id="HnI-MgtMOkBRiW1qj2IK-206" value="Mileage" style="connectable=0;recursiveResize=0;strokeColor=inherit;fillColor=#A7C942;align=center;fontStyle=1;fontColor=#FFFFFF;html=1;" vertex="1" parent="HnI-MgtMOkBRiW1qj2IK-205">
          <mxGeometry width="93" height="41" as="geometry">
            <mxRectangle width="93" height="41" as="alternateBounds" />
          </mxGeometry>
        </mxCell>
        <mxCell id="HnI-MgtMOkBRiW1qj2IK-207" value="Tax" style="connectable=0;recursiveResize=0;strokeColor=inherit;fillColor=#A7C942;align=center;fontStyle=1;fontColor=#FFFFFF;html=1;" vertex="1" parent="HnI-MgtMOkBRiW1qj2IK-205">
          <mxGeometry x="93" width="94" height="41" as="geometry">
            <mxRectangle width="94" height="41" as="alternateBounds" />
          </mxGeometry>
        </mxCell>
        <mxCell id="HnI-MgtMOkBRiW1qj2IK-208" value="MPG" style="connectable=0;recursiveResize=0;strokeColor=inherit;fillColor=#A7C942;align=center;fontStyle=1;fontColor=#FFFFFF;html=1;" vertex="1" parent="HnI-MgtMOkBRiW1qj2IK-205">
          <mxGeometry x="187" width="93" height="41" as="geometry">
            <mxRectangle width="93" height="41" as="alternateBounds" />
          </mxGeometry>
        </mxCell>
        <mxCell id="HnI-MgtMOkBRiW1qj2IK-209" value="" style="shape=tableRow;horizontal=0;startSize=0;swimlaneHead=0;swimlaneBody=0;top=0;left=0;bottom=0;right=0;dropTarget=0;collapsible=0;recursiveResize=0;expand=0;fontStyle=0;strokeColor=inherit;fillColor=#ffffff;" vertex="1" parent="HnI-MgtMOkBRiW1qj2IK-204">
          <mxGeometry y="41" width="280" height="40" as="geometry" />
        </mxCell>
        <mxCell id="HnI-MgtMOkBRiW1qj2IK-210" value="15900" style="connectable=0;recursiveResize=0;strokeColor=inherit;fillColor=inherit;align=center;whiteSpace=wrap;html=1;" vertex="1" parent="HnI-MgtMOkBRiW1qj2IK-209">
          <mxGeometry width="93" height="40" as="geometry">
            <mxRectangle width="93" height="40" as="alternateBounds" />
          </mxGeometry>
        </mxCell>
        <mxCell id="HnI-MgtMOkBRiW1qj2IK-211" value="150" style="connectable=0;recursiveResize=0;strokeColor=inherit;fillColor=inherit;align=center;whiteSpace=wrap;html=1;" vertex="1" parent="HnI-MgtMOkBRiW1qj2IK-209">
          <mxGeometry x="93" width="94" height="40" as="geometry">
            <mxRectangle width="94" height="40" as="alternateBounds" />
          </mxGeometry>
        </mxCell>
        <mxCell id="HnI-MgtMOkBRiW1qj2IK-212" value="57.7" style="connectable=0;recursiveResize=0;strokeColor=inherit;fillColor=inherit;align=center;whiteSpace=wrap;html=1;" vertex="1" parent="HnI-MgtMOkBRiW1qj2IK-209">
          <mxGeometry x="187" width="93" height="40" as="geometry">
            <mxRectangle width="93" height="40" as="alternateBounds" />
          </mxGeometry>
        </mxCell>
        <mxCell id="HnI-MgtMOkBRiW1qj2IK-213" value="" style="shape=tableRow;horizontal=0;startSize=0;swimlaneHead=0;swimlaneBody=0;top=0;left=0;bottom=0;right=0;dropTarget=0;collapsible=0;recursiveResize=0;expand=0;fontStyle=1;strokeColor=inherit;fillColor=#EAF2D3;" vertex="1" parent="HnI-MgtMOkBRiW1qj2IK-204">
          <mxGeometry y="81" width="280" height="39" as="geometry" />
        </mxCell>
        <mxCell id="HnI-MgtMOkBRiW1qj2IK-214" value="9000" style="connectable=0;recursiveResize=0;strokeColor=inherit;fillColor=inherit;whiteSpace=wrap;html=1;" vertex="1" parent="HnI-MgtMOkBRiW1qj2IK-213">
          <mxGeometry width="93" height="39" as="geometry">
            <mxRectangle width="93" height="39" as="alternateBounds" />
          </mxGeometry>
        </mxCell>
        <mxCell id="HnI-MgtMOkBRiW1qj2IK-215" value="145" style="connectable=0;recursiveResize=0;strokeColor=inherit;fillColor=inherit;whiteSpace=wrap;html=1;" vertex="1" parent="HnI-MgtMOkBRiW1qj2IK-213">
          <mxGeometry x="93" width="94" height="39" as="geometry">
            <mxRectangle width="94" height="39" as="alternateBounds" />
          </mxGeometry>
        </mxCell>
        <mxCell id="HnI-MgtMOkBRiW1qj2IK-216" value="50.3" style="connectable=0;recursiveResize=0;strokeColor=inherit;fillColor=inherit;whiteSpace=wrap;html=1;" vertex="1" parent="HnI-MgtMOkBRiW1qj2IK-213">
          <mxGeometry x="187" width="93" height="39" as="geometry">
            <mxRectangle width="93" height="39" as="alternateBounds" />
          </mxGeometry>
        </mxCell>
        <mxCell id="HnI-MgtMOkBRiW1qj2IK-217" value="" style="shape=tableRow;horizontal=0;startSize=0;swimlaneHead=0;swimlaneBody=0;top=0;left=0;bottom=0;right=0;dropTarget=0;collapsible=0;recursiveResize=0;expand=0;fontStyle=0;strokeColor=inherit;fillColor=#ffffff;" vertex="1" parent="HnI-MgtMOkBRiW1qj2IK-204">
          <mxGeometry y="120" width="280" height="41" as="geometry" />
        </mxCell>
        <mxCell id="HnI-MgtMOkBRiW1qj2IK-218" value="12040" style="connectable=0;recursiveResize=0;strokeColor=inherit;fillColor=inherit;fontStyle=0;align=center;whiteSpace=wrap;html=1;" vertex="1" parent="HnI-MgtMOkBRiW1qj2IK-217">
          <mxGeometry width="93" height="41" as="geometry">
            <mxRectangle width="93" height="41" as="alternateBounds" />
          </mxGeometry>
        </mxCell>
        <mxCell id="HnI-MgtMOkBRiW1qj2IK-219" value="0" style="connectable=0;recursiveResize=0;strokeColor=inherit;fillColor=inherit;fontStyle=0;align=center;whiteSpace=wrap;html=1;" vertex="1" parent="HnI-MgtMOkBRiW1qj2IK-217">
          <mxGeometry x="93" width="94" height="41" as="geometry">
            <mxRectangle width="94" height="41" as="alternateBounds" />
          </mxGeometry>
        </mxCell>
        <mxCell id="HnI-MgtMOkBRiW1qj2IK-220" value="54.2" style="connectable=0;recursiveResize=0;strokeColor=inherit;fillColor=inherit;fontStyle=0;align=center;whiteSpace=wrap;html=1;" vertex="1" parent="HnI-MgtMOkBRiW1qj2IK-217">
          <mxGeometry x="187" width="93" height="41" as="geometry">
            <mxRectangle width="93" height="41" as="alternateBounds" />
          </mxGeometry>
        </mxCell>
        <mxCell id="HnI-MgtMOkBRiW1qj2IK-221" value="" style="shape=tableRow;horizontal=0;startSize=0;swimlaneHead=0;swimlaneBody=0;top=0;left=0;bottom=0;right=0;dropTarget=0;collapsible=0;recursiveResize=0;expand=0;fontStyle=1;strokeColor=inherit;fillColor=#EAF2D3;" vertex="1" parent="HnI-MgtMOkBRiW1qj2IK-204">
          <mxGeometry y="161" width="280" height="39" as="geometry" />
        </mxCell>
        <mxCell id="HnI-MgtMOkBRiW1qj2IK-222" value="13050" style="connectable=0;recursiveResize=0;strokeColor=inherit;fillColor=inherit;whiteSpace=wrap;html=1;" vertex="1" parent="HnI-MgtMOkBRiW1qj2IK-221">
          <mxGeometry width="93" height="39" as="geometry">
            <mxRectangle width="93" height="39" as="alternateBounds" />
          </mxGeometry>
        </mxCell>
        <mxCell id="HnI-MgtMOkBRiW1qj2IK-223" value="160" style="connectable=0;recursiveResize=0;strokeColor=inherit;fillColor=inherit;whiteSpace=wrap;html=1;" vertex="1" parent="HnI-MgtMOkBRiW1qj2IK-221">
          <mxGeometry x="93" width="94" height="39" as="geometry">
            <mxRectangle width="94" height="39" as="alternateBounds" />
          </mxGeometry>
        </mxCell>
        <mxCell id="HnI-MgtMOkBRiW1qj2IK-224" value="65.8" style="connectable=0;recursiveResize=0;strokeColor=inherit;fillColor=inherit;whiteSpace=wrap;html=1;" vertex="1" parent="HnI-MgtMOkBRiW1qj2IK-221">
          <mxGeometry x="187" width="93" height="39" as="geometry">
            <mxRectangle width="93" height="39" as="alternateBounds" />
          </mxGeometry>
        </mxCell>
        <mxCell id="HnI-MgtMOkBRiW1qj2IK-225" value="Assets" style="childLayout=tableLayout;recursiveResize=0;strokeColor=#98bf21;fillColor=#A7C942;shadow=1;" vertex="1" parent="1">
          <mxGeometry x="660" y="300" width="280" height="200" as="geometry" />
        </mxCell>
        <mxCell id="HnI-MgtMOkBRiW1qj2IK-226" style="shape=tableRow;horizontal=0;startSize=0;swimlaneHead=0;swimlaneBody=0;top=0;left=0;bottom=0;right=0;dropTarget=0;collapsible=0;recursiveResize=0;expand=0;fontStyle=0;strokeColor=inherit;fillColor=#ffffff;" vertex="1" parent="HnI-MgtMOkBRiW1qj2IK-225">
          <mxGeometry width="280" height="41" as="geometry" />
        </mxCell>
        <mxCell id="HnI-MgtMOkBRiW1qj2IK-227" value="Engine Size" style="connectable=0;recursiveResize=0;strokeColor=inherit;fillColor=#A7C942;align=center;fontStyle=1;fontColor=#FFFFFF;html=1;" vertex="1" parent="HnI-MgtMOkBRiW1qj2IK-226">
          <mxGeometry width="93" height="41" as="geometry">
            <mxRectangle width="93" height="41" as="alternateBounds" />
          </mxGeometry>
        </mxCell>
        <mxCell id="HnI-MgtMOkBRiW1qj2IK-228" value="Prediction" style="connectable=0;recursiveResize=0;strokeColor=inherit;fillColor=#A7C942;align=center;fontStyle=1;fontColor=#FFFFFF;html=1;" vertex="1" parent="HnI-MgtMOkBRiW1qj2IK-226">
          <mxGeometry x="93" width="94" height="41" as="geometry">
            <mxRectangle width="94" height="41" as="alternateBounds" />
          </mxGeometry>
        </mxCell>
        <mxCell id="HnI-MgtMOkBRiW1qj2IK-229" value="TimeStamp" style="connectable=0;recursiveResize=0;strokeColor=inherit;fillColor=#A7C942;align=center;fontStyle=1;fontColor=#FFFFFF;html=1;" vertex="1" parent="HnI-MgtMOkBRiW1qj2IK-226">
          <mxGeometry x="187" width="93" height="41" as="geometry">
            <mxRectangle width="93" height="41" as="alternateBounds" />
          </mxGeometry>
        </mxCell>
        <mxCell id="HnI-MgtMOkBRiW1qj2IK-230" value="" style="shape=tableRow;horizontal=0;startSize=0;swimlaneHead=0;swimlaneBody=0;top=0;left=0;bottom=0;right=0;dropTarget=0;collapsible=0;recursiveResize=0;expand=0;fontStyle=0;strokeColor=inherit;fillColor=#ffffff;" vertex="1" parent="HnI-MgtMOkBRiW1qj2IK-225">
          <mxGeometry y="41" width="280" height="40" as="geometry" />
        </mxCell>
        <mxCell id="HnI-MgtMOkBRiW1qj2IK-231" value="1" style="connectable=0;recursiveResize=0;strokeColor=inherit;fillColor=inherit;align=center;whiteSpace=wrap;html=1;" vertex="1" parent="HnI-MgtMOkBRiW1qj2IK-230">
          <mxGeometry width="93" height="40" as="geometry">
            <mxRectangle width="93" height="40" as="alternateBounds" />
          </mxGeometry>
        </mxCell>
        <mxCell id="HnI-MgtMOkBRiW1qj2IK-232" value="$9975" style="connectable=0;recursiveResize=0;strokeColor=inherit;fillColor=inherit;align=center;whiteSpace=wrap;html=1;" vertex="1" parent="HnI-MgtMOkBRiW1qj2IK-230">
          <mxGeometry x="93" width="94" height="40" as="geometry">
            <mxRectangle width="94" height="40" as="alternateBounds" />
          </mxGeometry>
        </mxCell>
        <mxCell id="HnI-MgtMOkBRiW1qj2IK-233" value="3 Dec 10:22" style="connectable=0;recursiveResize=0;strokeColor=inherit;fillColor=inherit;align=center;whiteSpace=wrap;html=1;" vertex="1" parent="HnI-MgtMOkBRiW1qj2IK-230">
          <mxGeometry x="187" width="93" height="40" as="geometry">
            <mxRectangle width="93" height="40" as="alternateBounds" />
          </mxGeometry>
        </mxCell>
        <mxCell id="HnI-MgtMOkBRiW1qj2IK-234" value="" style="shape=tableRow;horizontal=0;startSize=0;swimlaneHead=0;swimlaneBody=0;top=0;left=0;bottom=0;right=0;dropTarget=0;collapsible=0;recursiveResize=0;expand=0;fontStyle=1;strokeColor=inherit;fillColor=#EAF2D3;" vertex="1" parent="HnI-MgtMOkBRiW1qj2IK-225">
          <mxGeometry y="81" width="280" height="39" as="geometry" />
        </mxCell>
        <mxCell id="HnI-MgtMOkBRiW1qj2IK-235" value="1" style="connectable=0;recursiveResize=0;strokeColor=inherit;fillColor=inherit;whiteSpace=wrap;html=1;" vertex="1" parent="HnI-MgtMOkBRiW1qj2IK-234">
          <mxGeometry width="93" height="39" as="geometry">
            <mxRectangle width="93" height="39" as="alternateBounds" />
          </mxGeometry>
        </mxCell>
        <mxCell id="HnI-MgtMOkBRiW1qj2IK-236" value="$20616" style="connectable=0;recursiveResize=0;strokeColor=inherit;fillColor=inherit;whiteSpace=wrap;html=1;" vertex="1" parent="HnI-MgtMOkBRiW1qj2IK-234">
          <mxGeometry x="93" width="94" height="39" as="geometry">
            <mxRectangle width="94" height="39" as="alternateBounds" />
          </mxGeometry>
        </mxCell>
        <mxCell id="HnI-MgtMOkBRiW1qj2IK-237" value="3 Dec 10:23" style="connectable=0;recursiveResize=0;strokeColor=inherit;fillColor=inherit;whiteSpace=wrap;html=1;" vertex="1" parent="HnI-MgtMOkBRiW1qj2IK-234">
          <mxGeometry x="187" width="93" height="39" as="geometry">
            <mxRectangle width="93" height="39" as="alternateBounds" />
          </mxGeometry>
        </mxCell>
        <mxCell id="HnI-MgtMOkBRiW1qj2IK-238" value="" style="shape=tableRow;horizontal=0;startSize=0;swimlaneHead=0;swimlaneBody=0;top=0;left=0;bottom=0;right=0;dropTarget=0;collapsible=0;recursiveResize=0;expand=0;fontStyle=0;strokeColor=inherit;fillColor=#ffffff;" vertex="1" parent="HnI-MgtMOkBRiW1qj2IK-225">
          <mxGeometry y="120" width="280" height="41" as="geometry" />
        </mxCell>
        <mxCell id="HnI-MgtMOkBRiW1qj2IK-239" value="1.5" style="connectable=0;recursiveResize=0;strokeColor=inherit;fillColor=inherit;fontStyle=0;align=center;whiteSpace=wrap;html=1;" vertex="1" parent="HnI-MgtMOkBRiW1qj2IK-238">
          <mxGeometry width="93" height="41" as="geometry">
            <mxRectangle width="93" height="41" as="alternateBounds" />
          </mxGeometry>
        </mxCell>
        <mxCell id="HnI-MgtMOkBRiW1qj2IK-240" value="$7284" style="connectable=0;recursiveResize=0;strokeColor=inherit;fillColor=inherit;fontStyle=0;align=center;whiteSpace=wrap;html=1;" vertex="1" parent="HnI-MgtMOkBRiW1qj2IK-238">
          <mxGeometry x="93" width="94" height="41" as="geometry">
            <mxRectangle width="94" height="41" as="alternateBounds" />
          </mxGeometry>
        </mxCell>
        <mxCell id="HnI-MgtMOkBRiW1qj2IK-241" value="3 Dec 10:24" style="connectable=0;recursiveResize=0;strokeColor=inherit;fillColor=inherit;fontStyle=0;align=center;whiteSpace=wrap;html=1;" vertex="1" parent="HnI-MgtMOkBRiW1qj2IK-238">
          <mxGeometry x="187" width="93" height="41" as="geometry">
            <mxRectangle width="93" height="41" as="alternateBounds" />
          </mxGeometry>
        </mxCell>
        <mxCell id="HnI-MgtMOkBRiW1qj2IK-242" value="" style="shape=tableRow;horizontal=0;startSize=0;swimlaneHead=0;swimlaneBody=0;top=0;left=0;bottom=0;right=0;dropTarget=0;collapsible=0;recursiveResize=0;expand=0;fontStyle=1;strokeColor=inherit;fillColor=#EAF2D3;" vertex="1" parent="HnI-MgtMOkBRiW1qj2IK-225">
          <mxGeometry y="161" width="280" height="39" as="geometry" />
        </mxCell>
        <mxCell id="HnI-MgtMOkBRiW1qj2IK-243" value="2" style="connectable=0;recursiveResize=0;strokeColor=inherit;fillColor=inherit;whiteSpace=wrap;html=1;" vertex="1" parent="HnI-MgtMOkBRiW1qj2IK-242">
          <mxGeometry width="93" height="39" as="geometry">
            <mxRectangle width="93" height="39" as="alternateBounds" />
          </mxGeometry>
        </mxCell>
        <mxCell id="HnI-MgtMOkBRiW1qj2IK-244" value="$16481" style="connectable=0;recursiveResize=0;strokeColor=inherit;fillColor=inherit;whiteSpace=wrap;html=1;" vertex="1" parent="HnI-MgtMOkBRiW1qj2IK-242">
          <mxGeometry x="93" width="94" height="39" as="geometry">
            <mxRectangle width="94" height="39" as="alternateBounds" />
          </mxGeometry>
        </mxCell>
        <mxCell id="HnI-MgtMOkBRiW1qj2IK-245" value="3 Dec 10:25" style="connectable=0;recursiveResize=0;strokeColor=inherit;fillColor=inherit;whiteSpace=wrap;html=1;" vertex="1" parent="HnI-MgtMOkBRiW1qj2IK-242">
          <mxGeometry x="187" width="93" height="39" as="geometry">
            <mxRectangle width="93" height="39" as="alternateBounds" />
          </mxGeometry>
        </mxCell>
        <mxCell id="HnI-MgtMOkBRiW1qj2IK-299" value="Remove" style="rounded=1;whiteSpace=wrap;html=1;fillColor=#e51400;strokeColor=#B20000;fontColor=#ffffff;" vertex="1" parent="1">
          <mxGeometry x="950" y="350" width="80" height="30" as="geometry" />
        </mxCell>
        <mxCell id="HnI-MgtMOkBRiW1qj2IK-307" value="Delete" style="rounded=0;whiteSpace=wrap;html=1;" vertex="1" parent="1">
          <mxGeometry x="945" y="300" width="90" height="40" as="geometry" />
        </mxCell>
        <mxCell id="HnI-MgtMOkBRiW1qj2IK-308" value="Remove" style="rounded=1;whiteSpace=wrap;html=1;fillColor=#e51400;strokeColor=#B20000;fontColor=#ffffff;" vertex="1" parent="1">
          <mxGeometry x="950" y="385" width="80" height="30" as="geometry" />
        </mxCell>
        <mxCell id="HnI-MgtMOkBRiW1qj2IK-309" value="Remove" style="rounded=1;whiteSpace=wrap;html=1;fillColor=#e51400;strokeColor=#B20000;fontColor=#ffffff;" vertex="1" parent="1">
          <mxGeometry x="950" y="425" width="80" height="30" as="geometry" />
        </mxCell>
        <mxCell id="HnI-MgtMOkBRiW1qj2IK-310" value="Remove" style="rounded=1;whiteSpace=wrap;html=1;fillColor=#e51400;strokeColor=#B20000;fontColor=#ffffff;" vertex="1" parent="1">
          <mxGeometry x="950" y="470" width="80" height="30" as="geometry" />
        </mxCell>
      </root>
    </mxGraphModel>
  </diagram>
</mxfile>
